<?xml version="1.0" encoding="UTF-8"?><svg id="Layer_2" xmlns="http://www.w3.org/2000/svg" viewBox="0 0 332.22 106.42"><defs><style>.cls-1{fill:#8431b0;stroke-width:0px;}</style></defs><g id="Layer_2-2"><path class="cls-1" d="m0,43.27c0-2.07,1.7-3.7,3.77-3.7s3.84,1.63,3.84,3.7v15.89c0,2.59.22,4.29,1.03,5.84.96,1.85,2.81,2.96,5.69,2.96,3.1,0,5.1-1.33,6.06-3.55.67-1.48.96-3.1.96-5.4v-15.75c0-2.07,1.7-3.7,3.77-3.7s3.77,1.63,3.77,3.7v15.75c0,2.29.3,3.92.96,5.4.96,2.22,2.96,3.55,6.14,3.55,2.81,0,4.66-1.18,5.62-2.96.81-1.55,1.11-3.25,1.11-5.84v-15.89c0-2.07,1.55-3.7,3.7-3.7s3.77,1.63,3.77,3.7v16.19c0,4.29-.67,7.24-2.14,9.68-2.07,3.62-6.06,5.47-11.46,5.47-5.03,0-9.02-1.92-11.46-6.21-2.37,4.07-6.06,6.21-11.46,6.21s-9.46-1.85-11.53-5.4c-1.48-2.51-2.14-5.4-2.14-9.76v-16.19Z"/><path class="cls-1" d="m59.8,26.63c0-2.07,1.7-3.7,3.77-3.7s3.77,1.63,3.77,3.7v18.11c2.44-3.4,6.28-5.18,10.94-5.18,3.84,0,7.32.96,9.76,3.18,2.51,2.22,3.92,5.84,3.92,10.94v17.23c0,2.07-1.77,3.7-3.77,3.7-2.14,0-3.84-1.63-3.84-3.7v-15.38c0-3.03-.44-5.77-2.14-7.54-1.18-1.18-2.88-1.92-5.4-1.92-3.4,0-6.06,1.55-7.69,4.44-1.26,2.29-1.77,5.1-1.77,7.84v12.57c0,2.07-1.77,3.7-3.77,3.7s-3.77-1.63-3.77-3.7V26.63Z"/><path class="cls-1" d="m105.78,55.84c4.14-1.7,9.61-2.22,14.19-2.59v-.89c0-2.37-.44-3.84-1.4-5.03-1.18-1.4-2.96-1.92-4.95-1.92-2.51,0-4.58.66-6.28,1.4-1.7.74-2.59,1.18-3.62,1.18-1.55,0-2.74-1.18-2.74-2.74,0-1.92,1.77-2.96,3.92-3.84,2.74-1.11,6.06-1.85,9.54-1.85s7.47.67,10.28,3.77c1.77,2,2.81,4.73,2.81,9.02v18.56c0,2.07-1.77,3.7-3.77,3.7-1.55,0-2.88-.81-3.47-2.07-3.03,1.63-5.99,2.07-9.39,2.07-5.99,0-11.61-3.55-11.61-10.13,0-4.51,2.74-7.1,6.51-8.65Zm14.19,11.31v-8.65c-7.98.44-13.45,1.92-13.45,5.84,0,3.25,3.25,4.73,6.73,4.73,2.22,0,4.58-.67,6.73-1.92Z"/><path class="cls-1" d="m137.27,40.24v-5.25c0-2.07,1.7-3.7,3.77-3.7s3.84,1.63,3.84,3.7v5.25h8.43c1.55,0,2.88,1.33,2.88,3.03s-1.33,2.96-2.88,2.96h-8.43v16.12c0,3.92,1.33,5.91,4.73,5.91s4.29-2.44,6.51-2.44c1.92,0,2.88,1.4,2.88,3.03,0,1.85-1.85,3.33-4.07,4.36-2,.89-4.36,1.4-6.73,1.4-7.98,0-10.94-5.17-10.94-11.61v-16.78h-2.81c-1.63,0-2.88-1.33-2.88-2.96s1.26-3.03,2.88-3.03h2.81Z"/><path class="cls-1" d="m217.49,47.7c-2,2.44-2.88,5.84-2.88,9.39,0,3.77.89,7.24,2.81,9.61,1.7,2.07,4.07,3.33,7.39,3.33,3.92,0,6.95-1.4,9.46-3.55v-18.33c-1.92-1.55-4.73-3.84-9.39-3.84-3.25,0-5.77,1.33-7.39,3.4Z"/><path class="cls-1" d="m331.9,66.8l-10.26-52.85c-1.81-9.31-10.9-15.44-20.2-13.64l-98.22,19.06c-.05,0-.1.02-.15.03-4.53.82-8.73,3.38-11.5,7.47l-20.97,31.07c-5.43,8.05-3.29,19.08,4.75,24.51l31.07,20.97c3.56,2.41,7.71,3.32,11.7,2.9.63-.05,1.27-.13,1.91-.26l98.22-19.06c9.31-1.81,15.44-10.9,13.64-20.2Zm-145.85,7.87c-3.52,0-6.33-2.79-6.33-6.28s2.82-6.28,6.33-6.28,6.23,2.79,6.23,6.28-2.81,6.28-6.23,6.28Zm53.62.38c0,5.32-1.4,9.39-4.14,12.12-2.59,2.51-6.36,3.84-11.24,3.84-3.77,0-6.43-.66-9.32-2.22-2.37-1.26-3.7-2.59-3.7-4.07,0-1.26.89-2.44,2.29-2.44,1.33,0,1.7.74,3.62,2.14,2.22,1.55,4.58,2.14,7.02,2.14,3.55,0,6.06-.96,7.69-2.81,1.63-1.85,2.37-4.58,2.37-7.91v-4.51c-2.96,2.37-6.36,3.18-9.98,3.18-4.73,0-8.28-1.77-10.79-4.58-2.88-3.25-4.36-7.84-4.36-12.86,0-4.66,1.33-9.31,4.29-12.64,2.44-2.81,6.06-4.58,10.79-4.58s7.76,1.63,10.05,3.25v-.67c0-1.48,1.18-2.59,2.74-2.59s2.66,1.11,2.66,2.59v32.6Zm16.19-3.03c0,1.4-1.26,2.59-2.74,2.59s-2.74-1.18-2.74-2.59v-29.57c0-1.48,1.26-2.59,2.74-2.59s2.74,1.11,2.74,2.59v29.57Zm-2.81-44.21c-1.77,0-3.25-1.48-3.25-3.25s1.48-3.25,3.25-3.25,3.25,1.48,3.25,3.25-1.48,3.25-3.25,3.25Zm33.04,2.14c-1.85,0-3.18-2.22-6.88-2.22-4.29,0-5.62,2.36-5.62,7.17v5.62h9.39c1.11,0,2.07.96,2.07,2.07,0,1.26-.96,2.22-2.07,2.22h-9.39v27.21c0,1.4-1.18,2.59-2.66,2.59s-2.74-1.18-2.74-2.59v-27.21h-3.55c-1.18,0-2.14-.96-2.14-2.22,0-1.11.96-2.07,2.14-2.07h3.55v-5.99c0-6.21,2.22-11.68,9.98-11.68,2.07,0,4.81.37,7.02,1.4,1.92.89,2.96,2.07,2.96,3.55,0,1.11-.89,2.14-2.07,2.14Zm23.73,43.32c-1.85.81-3.99,1.33-6.28,1.33-7.76,0-10.5-4.88-10.5-11.38v-18.41h-3.18c-1.18,0-2.14-1.03-2.14-2.22,0-1.11.96-2.07,2.14-2.07h3.18v-5.54c0-1.48,1.18-2.66,2.74-2.66,1.4,0,2.66,1.18,2.66,2.66v5.54h10.2c1.18,0,2.14.96,2.14,2.07,0,1.18-.96,2.22-2.14,2.22h-10.2v17.89c0,4.66,1.48,7.17,6.06,7.17,3.7,0,5.4-2.44,6.88-2.44,1.26,0,2,.96,2,2.14,0,1.48-1.55,2.81-3.55,3.7Z"/></g></svg>